<svg width="23" height="20" viewBox="0 0 23 20" fill="none" xmlns="http://www.w3.org/2000/svg">
<path d="M1.28571 4.1875H21.7143C22.1482 4.1875 22.5 3.85173 22.5 3.4375V1.5625C22.5 1.14827 22.1482 0.8125 21.7143 0.8125H1.28571C0.851754 0.8125 0.5 1.14827 0.5 1.5625V3.4375C0.5 3.85173 0.851754 4.1875 1.28571 4.1875ZM1.28571 11.6875H21.7143C22.1482 11.6875 22.5 11.3517 22.5 10.9375V9.0625C22.5 8.64827 22.1482 8.3125 21.7143 8.3125H1.28571C0.851754 8.3125 0.5 8.64827 0.5 9.0625V10.9375C0.5 11.3517 0.851754 11.6875 1.28571 11.6875ZM1.28571 19.1875H21.7143C22.1482 19.1875 22.5 18.8517 22.5 18.4375V16.5625C22.5 16.1483 22.1482 15.8125 21.7143 15.8125H1.28571C0.851754 15.8125 0.5 16.1483 0.5 16.5625V18.4375C0.5 18.8517 0.851754 19.1875 1.28571 19.1875Z" fill="black"/>
</svg>
