<svg width="25" height="25" viewBox="0 0 25 25" fill="none" xmlns="http://www.w3.org/2000/svg">
<g clip-path="url(#clip0)">
<path d="M23.4669 13.9492V22.6457C23.4669 23.7807 22.5436 24.7041 21.4086 24.7041H3.29514C2.16017 24.7041 1.23679 23.7807 1.23679 22.6457V13.9492C1.23679 13.7219 1.42112 13.5375 1.64846 13.5375C1.87581 13.5375 2.06013 13.7219 2.06013 13.9492V22.6457C2.06013 23.3267 2.61413 23.8807 3.29514 23.8807H7.77204V16.9338C7.77204 15.7988 8.69542 14.8755 9.83039 14.8755H14.8733C16.0083 14.8755 16.9317 15.7988 16.9317 16.9338V22.2341C16.9317 22.4614 16.7474 22.6457 16.52 22.6457C16.2927 22.6457 16.1084 22.4614 16.1084 22.2341V16.9338C16.1084 16.2529 15.5543 15.6988 14.8733 15.6988H9.83039C9.14944 15.6988 8.59538 16.2529 8.59538 16.9338V23.8807H11.9402V17.3969C11.9402 17.1696 12.1245 16.9853 12.3519 16.9853C12.5792 16.9853 12.7635 17.1696 12.7635 17.3969V23.8807H21.4086C22.0895 23.8807 22.6436 23.3267 22.6436 22.6457V13.9492C22.6436 13.7219 22.8279 13.5375 23.0553 13.5375C23.2826 13.5375 23.4669 13.7218 23.4669 13.9492ZM2.67764 6.59062C2.67764 6.81796 2.86196 7.00229 3.0893 7.00229C25.4876 7.00229 24.3771 7.04232 24.5407 6.91682C24.6263 6.851 24.6822 6.75606 24.6975 6.64758C24.7205 6.48214 24.8682 6.88898 21.9921 0.251886C21.9268 0.101318 21.7785 0.00390625 21.6144 0.00390625H3.08925C2.9252 0.00390625 2.77674 0.101369 2.71155 0.251886L0.0356946 6.42693C-0.011596 6.53612 0.00173183 6.36281 0.00173183 9.14462C0.00471643 11.0169 1.52825 12.5402 3.39801 12.5402C4.68339 12.5402 5.80514 11.8203 6.38173 10.762C7.66954 13.1286 11.0616 13.1312 12.3518 10.7636C13.641 13.1293 17.0316 13.1298 18.321 10.7636C18.8972 11.821 20.0191 12.5402 21.3056 12.5402C23.1784 12.5402 24.7019 11.0167 24.7019 9.14395C24.7019 8.9166 24.5176 8.73228 24.2902 8.73228C24.0629 8.73228 23.8786 8.9166 23.8786 9.14395C23.8786 10.5627 22.7243 11.7169 21.3056 11.7169C19.8869 11.7169 18.7327 10.5627 18.7327 9.14395C18.7327 8.9166 18.5484 8.73228 18.321 8.73228C18.0937 8.73228 17.9094 8.9166 17.9094 9.14395C17.9094 10.5627 16.7551 11.7169 15.3364 11.7169C13.9177 11.7169 12.7635 10.5627 12.7635 9.14395C12.7635 8.9166 12.5792 8.73228 12.3518 8.73228C12.1245 8.73228 11.9401 8.9166 11.9401 9.14395C11.9401 10.5627 10.7859 11.7169 9.36721 11.7169C7.98004 11.7169 6.79428 10.6021 6.79428 9.12336C6.79428 8.89602 6.60995 8.7117 6.38261 8.7117C6.15526 8.7117 5.97094 8.89602 5.97094 9.12336C5.97094 10.5896 4.79259 11.7169 3.39801 11.7169C1.98155 11.7169 0.827284 10.5624 0.825071 9.14395V6.67594L3.35957 0.827245H21.3442L23.6632 6.17895H3.0893C2.86191 6.17895 2.67764 6.36322 2.67764 6.59062V6.59062Z" fill="#798A9B"/>
</g>
<defs>
<clipPath id="clip0">
<rect width="24.7059" height="24.7059" fill="white"/>
</clipPath>
</defs>
</svg>
