<svg width="25" height="26" viewBox="0 0 25 26" fill="none" xmlns="http://www.w3.org/2000/svg">
<g clip-path="url(#clip0)">
<path d="M12.1094 0.78418C5.43227 0.78418 0 6.21645 0 12.8936C0 15.818 1.04221 18.5034 2.77466 20.5983C2.7791 20.6044 2.77951 20.6121 2.78435 20.6177C4.03525 22.1261 5.60624 23.2826 7.35685 24.0297C7.37703 24.0382 7.39681 24.0475 7.41699 24.056C7.55867 24.1157 7.70197 24.171 7.84566 24.2251C7.90217 24.2465 7.95868 24.2683 8.016 24.2889C8.13992 24.3333 8.26465 24.3753 8.39018 24.4156C8.47051 24.4415 8.55083 24.4669 8.63197 24.4911C8.74297 24.5242 8.85438 24.5561 8.96659 24.5864C9.06508 24.613 9.16438 24.6376 9.26367 24.6614C9.36418 24.6857 9.46509 24.7099 9.56641 24.7313C9.67943 24.7555 9.79366 24.7769 9.90829 24.7979C10.0003 24.8148 10.092 24.8326 10.1848 24.8475C10.3119 24.8681 10.4399 24.8843 10.5683 24.9008C10.651 24.9113 10.7333 24.9234 10.8165 24.9323C10.9618 24.9476 11.1083 24.9585 11.2553 24.9686C11.3235 24.9735 11.3913 24.9807 11.4599 24.9844C11.6742 24.9965 11.891 25.0029 12.1094 25.0029C12.3277 25.0029 12.5445 24.9965 12.7596 24.9852C12.8283 24.9815 12.8961 24.9743 12.9643 24.9694C13.1112 24.9589 13.2577 24.9484 13.4031 24.9331C13.4862 24.9242 13.5686 24.9121 13.6513 24.9016C13.7797 24.8851 13.9076 24.8689 14.0348 24.8483C14.1272 24.8334 14.2192 24.8156 14.3113 24.7987C14.4255 24.7777 14.5397 24.7563 14.6532 24.7321C14.7545 24.7103 14.855 24.6865 14.9559 24.6623C15.0552 24.638 15.1545 24.6134 15.253 24.5872C15.3652 24.5573 15.4766 24.525 15.5876 24.4919C15.6687 24.4677 15.749 24.4423 15.8294 24.4164C15.9549 24.3761 16.0796 24.3341 16.2036 24.2897C16.2605 24.2691 16.317 24.2473 16.3739 24.2259C16.518 24.1718 16.6609 24.1161 16.8026 24.0568C16.8227 24.0483 16.8425 24.039 16.8627 24.0305C18.6129 23.2834 20.1843 22.127 21.4352 20.6185C21.4401 20.6129 21.4405 20.6048 21.4449 20.5992C23.1765 18.5034 24.2188 15.818 24.2188 12.8936C24.2188 6.21645 18.7865 0.78418 12.1094 0.78418ZM17.0165 23.0735C17.0104 23.0763 17.0048 23.0796 16.9987 23.0824C16.8546 23.1518 16.7081 23.2172 16.5604 23.281C16.5269 23.2951 16.4938 23.3096 16.4603 23.3238C16.3311 23.3779 16.2003 23.4291 16.0687 23.4784C16.0138 23.4989 15.9589 23.5191 15.9036 23.5385C15.787 23.5801 15.6699 23.62 15.5517 23.658C15.4782 23.6814 15.4043 23.7036 15.3305 23.7254C15.2255 23.7569 15.1202 23.7871 15.0136 23.8154C14.924 23.8392 14.8336 23.861 14.7432 23.8824C14.6483 23.905 14.5539 23.928 14.4582 23.9482C14.3536 23.9704 14.2483 23.9894 14.1433 24.0083C14.0582 24.0241 13.9734 24.0406 13.8874 24.0544C13.7692 24.0729 13.6497 24.0879 13.5306 24.1028C13.4551 24.1125 13.3801 24.1238 13.3038 24.1319C13.1677 24.1464 13.0305 24.1557 12.8937 24.1654C12.8327 24.1694 12.7722 24.1763 12.7104 24.1795C12.5106 24.19 12.3104 24.1956 12.1094 24.1956C11.9084 24.1956 11.7082 24.19 11.5087 24.1795C11.4474 24.1763 11.3868 24.1698 11.3255 24.1654C11.1883 24.1561 11.0514 24.1464 10.9154 24.1319C10.8391 24.1238 10.764 24.1125 10.6885 24.1028C10.5695 24.0879 10.45 24.0729 10.3317 24.0544C10.2457 24.0406 10.161 24.0241 10.0758 24.0083C9.97046 23.9894 9.8651 23.97 9.76096 23.9482C9.6653 23.928 9.57044 23.905 9.47599 23.8824C9.38557 23.8606 9.29516 23.8392 9.20555 23.8154C9.09939 23.7871 8.99363 23.7565 8.88869 23.7254C8.81482 23.7036 8.74095 23.6814 8.66749 23.658C8.54922 23.62 8.43176 23.5801 8.31551 23.5385C8.26021 23.5187 8.20531 23.4985 8.15042 23.4784C8.01883 23.4291 7.88805 23.3779 7.75888 23.3238C7.72538 23.31 7.69268 23.2955 7.65918 23.2814C7.51145 23.218 7.36492 23.1522 7.22042 23.0828C7.21436 23.08 7.20871 23.0771 7.20266 23.0739C5.79434 22.3926 4.5503 21.4254 3.54078 20.2508C4.32103 17.3777 6.52978 15.0615 9.37145 14.14C9.42755 14.1743 9.48608 14.205 9.5438 14.2373C9.57771 14.2563 9.61121 14.2764 9.64552 14.2946C9.76581 14.3584 9.88771 14.4181 10.0124 14.4718C10.1081 14.5138 10.207 14.5493 10.3055 14.5856C10.3249 14.5925 10.3442 14.6002 10.3636 14.607C10.911 14.8008 11.4966 14.9118 12.1094 14.9118C12.7221 14.9118 13.3078 14.8008 13.8547 14.607C13.8741 14.6002 13.8935 14.5925 13.9129 14.5856C14.0114 14.5493 14.1102 14.5138 14.2059 14.4718C14.3306 14.4181 14.4525 14.3584 14.5728 14.2946C14.6071 14.276 14.6406 14.2563 14.6745 14.2373C14.7323 14.205 14.7912 14.1743 14.8477 14.1396C17.6894 15.0615 19.8977 17.3777 20.6784 20.2504C19.6689 21.4246 18.4248 22.3917 17.0165 23.0735ZM7.66927 9.66439C7.66927 7.21628 9.66126 5.22428 12.1094 5.22428C14.5575 5.22428 16.5495 7.21628 16.5495 9.66439C16.5495 11.2217 15.7418 12.592 14.5248 13.3848C14.3658 13.4881 14.2003 13.5806 14.0303 13.6613C14.0101 13.671 13.9904 13.6811 13.9702 13.6904C12.8012 14.222 11.4175 14.222 10.2486 13.6904C10.2284 13.6811 10.2082 13.671 10.1884 13.6613C10.0181 13.5806 9.853 13.4881 9.69396 13.3848C8.47697 12.592 7.66927 11.2217 7.66927 9.66439ZM21.2838 19.4823C20.3688 16.7803 18.2811 14.5965 15.6138 13.5592C16.6807 12.5981 17.3568 11.2104 17.3568 9.66439C17.3568 6.77105 15.0027 4.41699 12.1094 4.41699C9.21604 4.41699 6.86198 6.77105 6.86198 9.66439C6.86198 11.2104 7.53809 12.5981 8.60533 13.5592C5.93803 14.5969 3.85038 16.7803 2.93531 19.4823C1.59803 17.6259 0.807292 15.351 0.807292 12.8936C0.807292 6.66167 5.87749 1.59147 12.1094 1.59147C18.3413 1.59147 23.4115 6.66167 23.4115 12.8936C23.4115 15.351 22.6207 17.6259 21.2838 19.4823Z" fill="#798A9B"/>
</g>
<defs>
<clipPath id="clip0">
<rect width="24.2188" height="24.2188" fill="white" transform="translate(0 0.78418)"/>
</clipPath>
</defs>
</svg>
